<svg xmlns="http://www.w3.org/2000/svg" viewBox="0 0 450 450"><path d="m94.39 78.72-8.85-10.16.26.19c2.64-1.86 5.22-4 6.38-6.75l-.09.77c3.59-4.92 1.52-9.24-.55-13.56-6.26-8.24-18.05-11.67-24.31-19.9-5-7.53-5.77-15.86-12.47-21.19-10.49-7.44-25.33.06-36.19 5.22l-1.28.5C8.95 21.76-2.97 32.47 2.92 43.04c4.41 6.89 13.59 9.5 20.87 15.47 7.78 7.2 8.86 17.92 16.64 25.12 4.36 2.76 8.73 5.52 15.1 3.65l-.7.15 6.4-2.39-.08-.41 10.21 9.19-.12.04c13.6 13.94 27.21 27.89 40.84 41.81 23.97 24.48 48.01 48.9 72.26 73.17 24.1 24.12 48.39 48.1 73.01 71.84l-.49-.46c.64.29 1.37.36 2.05.2.82-.19 1.54-.69 2.23-1.18 1.97-1.4 3.94-2.79 5.91-4.19.1-.07.22-.14.34-.1s.12.26 0 .26c1.86-2.29 4.18-4.19 6.77-5.55.24-.12.65-.14.64.14 1.55-1.87 3.34-3.53 5.31-4.92l.32.4c.56-.81 1.39-1.38 2.22-1.91s1.67-1.06 2.29-1.82.97-1.84.63-2.78l.45.34c-65.16-58.74-126.53-122.15-191.93-180.7" style="fill:#5c4d3c;stroke:#000;stroke-miterlimit:10;stroke-width:1.84px"/><path d="M366.3 434.04c-68.71 13.84-148.84-42.11-141.32-100.92 5.71-44.64 61.06-84.09 119.81-80.62 58.6 3.46 108.76 48.9 104.17 99.48-3.69 40.73-41.86 73.84-82.66 82.06Z" style="fill:#5c4d3c;stroke:#000;stroke-miterlimit:10;stroke-width:1.84px"/><path d="M368.16 410.36c-62.01 12.44-134.51-38.56-127.87-91.98 5.04-40.55 54.92-76.27 107.98-73.01 52.93 3.26 98.33 44.65 94.33 90.6-3.23 36.99-37.61 67-74.43 74.38Z" style="fill:#ffedd8;stroke:#000;stroke-miterlimit:10;stroke-width:1.84px"/><path d="M49.55 80.03c-4.24-.4-7.26-4.06-6.34-7.66.76-2.97 4.03-5.23 7.65-5.2 3.93.03 7.14 2.76 7.29 5.97.18 3.85-4.06 7.32-8.59 6.89ZM73.21 59.38c-4.24-.4-7.26-4.06-6.34-7.66.76-2.97 4.03-5.23 7.65-5.2 3.93.03 7.14 2.76 7.29 5.97.18 3.85-4.06 7.32-8.59 6.89ZM15.53 41.86c-4.24-.4-7.26-4.06-6.34-7.66.76-2.97 4.03-5.23 7.65-5.2 3.93.03 7.14 2.76 7.29 5.97.18 3.85-4.06 7.32-8.59 6.89ZM37.49 23.8c-4.24-.4-7.26-4.06-6.34-7.66.76-2.97 4.03-5.23 7.65-5.2 3.93.03 7.14 2.76 7.29 5.97.18 3.85-4.06 7.32-8.59 6.89Z" style="fill:#fad643;stroke:#000;stroke-miterlimit:10;stroke-width:.92px"/><path d="m351.84 379.86 41.54-33.97M369.03 366.09 71.67 76.44 22.63 39.52M375.24 361.34 75.49 73.84 40.76 24.07M121.47 139.39l238.97 233.58M121.47 139.39l-6.21 4.74" style="fill:none;stroke:#000;stroke-miterlimit:10;stroke-width:1.84px"/><path d="M111.75 150.95c2.53.62 5.28-2.37 5.54-2.66.9-.98 2.9-4.32 2.22-3.22.76 1.66-.92-4.28-2.95-4.69-1.17-.24-2.4.84-4.07 2.31-1.94 1.7-3.42 3-3.33 4.83.06 1.36.99 3.04 2.58 3.43Z" style="fill:#fad643;stroke:#000;stroke-miterlimit:10;stroke-width:1.84px"/><path d="m65.48 83.25 17.68-12.54M57.22 76.9l11.61 4.6c23.03 23.86 48.25 46.17 71.1 70.62 7.27 5.96 14.05 10.7 19.88 17.12 15.08 17.27 32.05 31.18 47.13 48.45 5.83 6.42 14.05 10.7 19.88 17.12 40.8 40.81 82.54 79.94 121.91 121.2 5.34 5.2 11.63 8.71 15.53 14.37M76.3 59.76l3.51 12.71.31.51c99.92 94.76 199.66 188.81 299.89 284.08" style="fill:none;stroke:#000;stroke-miterlimit:10;stroke-width:1.84px"/></svg>