<svg viewBox="0 0 456 500" xmlns="http://www.w3.org/2000/svg"><g stroke="#000" stroke-miterlimit="10"><g stroke-width="2"><path d="m97.05 85.11-8.6-11.9.26.23c3-1.77 6-3.85 7.56-6.72l-.17.82c4.37-5 2.54-9.89.71-14.79-6-9.56-18.42-14.43-24.4-24-4.69-8.66-4.72-17.75-11.47-24.23-10.64-9.11-27.43-2.38-39.68 2.17l-1.43.43c-9.83 7.79-23.74 18.29-18.38 30.34 4.11 7.92 13.8 11.64 21.11 18.84 7.74 8.58 7.87 20.34 15.61 28.92 4.45 3.42 8.91 6.84 16 5.43l-.78.1 7.16-2v-.45l10.17 11h-.13q20.07 24.72 40.19 49.41 35.38 43.39 71.19 86.55 35.66 42.84 72.13 85.16l-.48-.55a3.58 3.58 0 0 0 2.2.42 7.13 7.13 0 0 0 2.53-1.07l6.8-4a.39.39 0 0 1 .37-.08c.12.06.1.3 0 .28a23.61 23.61 0 0 1 7.87-5.37c.27-.12.72-.09.68.21a30.59 30.59 0 0 1 6.22-4.84l.31.46a8.11 8.11 0 0 1 2.58-1.86 9.55 9.55 0 0 0 2.66-1.76 3.28 3.28 0 0 0 .95-3l.45.41c-64.9-70.17-125.23-145-190.41-215" fill="#5c4d3c"/><path d="m357.26 497.72c-75.73 8.42-157.1-60.17-143.3-123.38 10.47-48 74.2-85.53 137.48-76.09 63.11 9.43 113 63.68 103.21 118.24-7.91 43.93-52.43 76.24-97.39 81.23z" fill="#5c4d3c"/><path d="m361.55 472.16c-68.33 7.53-141.93-54.93-129.55-112.36 9.36-43.61 66.8-77.63 123.94-68.95s102.17 58 93.41 107.63c-7.1 39.91-47.22 69.21-87.8 73.68z" fill="#ffedd8"/></g><path d="m48.38 82.2c-4.56-.85-7.47-5.12-6.13-8.94 1.1-3.17 4.86-5.3 8.78-4.92 4.25.41 7.46 3.68 7.31 7.2-.17 4.2-5.09 7.56-9.96 6.66zm27.62-20.2c-4.56-.85-7.47-5.12-6.13-8.94 1.1-3.16 4.87-5.3 8.78-4.92 4.25.42 7.46 3.69 7.32 7.2-.2 4.24-5.12 7.59-9.97 6.66zm-60.79-24.6c-4.55-.84-7.46-5.11-6.13-8.94 1.11-3.16 4.87-5.3 8.79-4.91 4.25.41 7.46 3.68 7.31 7.2-.18 4.25-5.09 7.56-9.97 6.65zm25.52-17.51c-4.56-.84-7.47-5.12-6.13-8.94 1.1-3.16 4.86-5.3 8.78-4.91 4.25.41 7.46 3.68 7.32 7.2-.18 4.2-5.1 7.56-9.97 6.65z" fill="#fad643"/><path d="m346.82 437.42 48.24-32.92m-28.31 19.61-294.08-343.68-49.54-44.88m350.8 384-296.87-341.58-32.81-57.47m76.28 133.19 236.26 277.07m-236.26-277.07-7.18 4.55" fill="none" stroke-width="2"/><path d="m108.9 165.32c2.67.92 5.94-2.07 6.25-2.36a36.81 36.81 0 0 0 2.72-3.28c.66 1.87-.59-4.75-2.74-5.39-1.24-.37-2.68.69-4.63 2.12-2.25 1.66-4 2.93-4.07 4.93a4.09 4.09 0 0 0 2.47 3.98z" fill="#fad643" stroke-width="2"/><path d="m65.31 87.24 20.36-11.94m-28.67 4.23 12.13 6.12c22.64 28.16 47.8 54.87 70.18 83.66 7.3 7.19 14.19 13 19.89 20.54 14.66 20.23 31.69 37 46.36 57.23 5.7 7.54 14.18 13 19.88 20.54 40.25 48.31 81.68 94.89 120.33 143.56 5.28 6.17 11.74 10.6 15.43 17.12m-281.91-365.56 2.58 14.15.28.59c99.07 112.69 198 224.59 297.36 337.87" fill="none" stroke-width="2"/></g></svg>