<svg xmlns="http://www.w3.org/2000/svg" viewBox="0 0 500 500"><path d="M441.71 237.43c.13-1.59.2-3.19.2-4.8 0-46.71-55.22-84.58-123.35-84.58-21.79 0-42.26 3.88-60.02 10.68-20.87-9.11-46.61-14.49-74.47-14.49-69.62 0-126.05 33.59-126.05 75.03 0 11.83 4.61 23.02 12.8 32.97C29.13 266.47 0 298.96 0 336.78c0 50.94 52.85 92.23 118.05 92.23 28.84 0 55.26-8.08 75.76-21.5 13.91 7.32 30.37 11.56 48.01 11.56 24.15 0 46.1-7.94 62.32-20.88 20.73 19.01 49.66 30.82 81.67 30.82 63.06 0 114.19-45.82 114.19-102.33 0-38.32-23.5-71.71-58.29-89.24Z" style="fill:#fff;stroke:#231f20;stroke-miterlimit:10;stroke-width:1.01px"/></svg>