<svg id="Layer_1" data-name="Layer 1" xmlns="http://www.w3.org/2000/svg" viewBox="0 0 455 498"><g id="Body"><path d="M417.2,321.18a92.66,92.66,0,0,1,27.62,20.25c3.61,3.91,6.83,8.17,8.54,12.89,1.87,5.15,1.84,10.59,1.37,15.88-2,21.72-11.36,42.66-26.79,59.61l-.59.07c-21.32,26.3-58.08,41.42-90.8,57-12.1,5.76-25.6,11.38-39.86,11.11-9.25-.18-18.35-3-27.25-5.72-7.38-2.28-14.84-4.6-21.57-8.2-17.1-9.13-27.37-25.22-36.36-40.63l.2-.12c-8.49-15.91-15.54-29.21-15.24-45.94s1.17-34.69-9.92-47.83c-5-6-12.19-10.46-19.85-14.2-8.61-4.2-18.18-7.67-24.38-14-12.25-12.55-7.12-33,6.14-47.22s30.91-23.18,44.79-36.83l.74.11c19.25-2.53,30.57-14.57,46.7-20.43,28.2-10.24,62.94-4.66,82.94,13.32a32.86,32.86,0,0,1,7.83,9.69c3.84,7.85,2.27,16.86,2.17,25.46-.12,9.77,1.93,19.86,8.82,27.54,16.14,18,50.21,15.74,73.25,27.58" style="fill:#6e3737"/><path d="M416.44,322.48a93.75,93.75,0,0,1,21.4,14.21c6.13,5.46,12.64,12.07,14.76,20.25,1.17,4.49,1,9.19.58,13.77a92.69,92.69,0,0,1-1.88,11.71,99.43,99.43,0,0,1-8.45,23.29,106.45,106.45,0,0,1-16,23l1.06-.44a2.9,2.9,0,0,0-1.65.51A17.75,17.75,0,0,0,424.5,431c-1.23,1.42-2.49,2.8-3.8,4.14a112.71,112.71,0,0,1-8.31,7.75,157,157,0,0,1-19.15,13.66c-13.85,8.54-28.59,15.52-43.3,22.41-15.62,7.32-31.64,16.51-49.23,17.48-9.42.53-18.52-1.82-27.45-4.53s-17.9-5.26-26-9.85c-15.65-8.87-25.63-24.2-34.48-39.35l-.54,2.06.21-.12a1.55,1.55,0,0,0,.54-2.06c-4.37-8.18-8.86-16.41-11.81-25.24a61.53,61.53,0,0,1-2.9-12.7,105.52,105.52,0,0,1-.22-13.19c.24-16.28-.71-33.86-13.21-45.86-6.32-6.07-14.2-10.08-22.09-13.71-7.44-3.43-15.77-6.81-21-13.41-10.07-12.7-3.08-30.73,6.26-41.61,11.7-13.63,27.93-22.3,41.37-34q2.52-2.19,4.91-4.53l-1.46.39A17.21,17.21,0,0,0,199,238a55.87,55.87,0,0,0,7-2,87.38,87.38,0,0,0,12.48-5.83c8.09-4.47,15.84-9.52,24.66-12.46a88.78,88.78,0,0,1,56.71.56A67,67,0,0,1,323,231.7c4,3.66,7.35,7.86,8.68,13.2s.87,10.82.62,16.2c-.46,10.08.44,20.54,6.2,29.17,4.67,7,11.8,11.57,19.45,14.73,16.44,6.78,34.62,7.75,51.17,14.21q3,1.17,5.85,2.63c1.72.88,3.24-1.71,1.51-2.59-14.87-7.58-31.81-9.22-47.69-13.73-7.33-2.08-14.74-4.79-20.83-9.5-7.32-5.67-11.34-14-12.43-23.12-1.16-9.71,1.52-19.77-1.09-29.31-2.4-8.81-9.88-15.31-17.24-20.16-14.54-9.58-32.6-13.61-49.86-13A88.59,88.59,0,0,0,241,215.27c-8.11,2.87-15.36,7.44-22.82,11.64a91.31,91.31,0,0,1-11.63,5.69,60.06,60.06,0,0,1-6.42,2.08q-1.57.4-3.18.72a24.21,24.21,0,0,1-2.9.49c-.89,0-1.32-.12-2,.52-1,.89-1.93,1.85-2.92,2.74q-2.78,2.5-5.69,4.84c-3.91,3.16-8,6.12-12,9.09C156.46,264,139.83,276,135,294.91c-1.94,7.66-1.54,16,2.67,22.9,4.85,7.9,13.57,12,21.68,15.77,8.87,4.08,18,8.32,24.8,15.54,6.4,6.8,9.34,15.81,10.35,24.94a121.4,121.4,0,0,1,.59,13.88c0,4.85-.35,9.73,0,14.57.71,9.75,4,18.93,8.17,27.69,2.23,4.7,4.69,9.29,7.14,13.88L211,442l-.2.13a1.52,1.52,0,0,0-.54,2.05c7.95,13.6,16.71,27.18,29.63,36.6,7.14,5.2,15.3,8.48,23.67,11.18,9.1,2.94,18.34,6,27.88,7.14,18.39,2.16,35.18-5.91,51.35-13.51,15-7.08,30.21-13.95,44.68-22.16,15.18-8.63,29.88-18.87,41-32.51l-1.06.44c1.95-.24,2.91-1.89,4.13-3.33q2.1-2.48,4.06-5.07a106,106,0,0,0,7.54-11.4,103.75,103.75,0,0,0,10.06-24.14,99.39,99.39,0,0,0,2.58-12.78,58,58,0,0,0,.55-14.17c-1.06-9.35-6.74-16.68-13.27-23.08a95.24,95.24,0,0,0-25-17.52c-1.73-.85-3.25,1.74-1.52,2.59Z"/></g><path d="M53.48,6.93A314.23,314.23,0,0,1,81.72,42.5c1.53,2.26,3.06,4.6,3.46,7.17.92,5.88-4.23,11.08-9.59,14.84A86.62,86.62,0,0,1,58.2,73.88c-3.34,1.34-7.4,2.46-10.64.88a11.75,11.75,0,0,1-3.66-3.23L16.67,39.47c-3.22-3.79-6.61-8.27-5.25-12.74a13.54,13.54,0,0,1,3.19-4.86A77.6,77.6,0,0,1,41.23,3.1a12.1,12.1,0,0,1,3.25-1c4.24-.55,7.76,2.7,10.36,5.61" style="fill:#6e3737"/><path d="M52.42,8A313.4,313.4,0,0,1,79.64,42.11c1.83,2.67,4.18,5.61,4.15,9,0,2.89-1.74,5.48-3.63,7.53C75.7,63.47,69.52,66.93,63.68,69.8a49.38,49.38,0,0,1-9.4,3.81,10.8,10.8,0,0,1-4.45.32,7.21,7.21,0,0,1-4.08-2.55c-5.14-5.66-9.93-11.68-14.88-17.5S21,42.57,16.32,36.7c-1.9-2.39-4.16-5.54-3.65-8.78.49-3.06,3.44-5.56,5.53-7.64A75.77,75.77,0,0,1,35.76,7.41q2.48-1.34,5-2.49c1.64-.74,3.35-1.57,5.2-1.4,3.21.3,5.76,2.95,7.79,5.21,1.3,1.44,3.41-.68,2.12-2.12C53.8,4.27,51.39,2,48.36,1c-3.51-1.19-6.7.23-9.87,1.7A81.26,81.26,0,0,0,20.33,14.27a65.72,65.72,0,0,0-7.49,7.34c-2.34,2.73-3.79,5.8-3,9.45.79,3.49,3.2,6.46,5.45,9.14,2.69,3.2,5.42,6.38,8.13,9.57L39.8,69c2.32,2.73,4.56,6.26,8.09,7.5,3.3,1.17,7,.24,10.15-1a80.29,80.29,0,0,0,19.8-10.84c5-3.83,10.44-9.62,8.56-16.5-1-3.66-3.61-6.84-5.76-9.9q-3.4-4.86-7-9.59Q66.41,19.23,58.5,10.27q-2-2.22-4-4.4c-1.31-1.43-3.43.7-2.12,2.12Z"/><path d="M76.22,19.31a8.93,8.93,0,0,0,2.4,3.32c.22.22.43.44.63.68s-.12-.19.1.11c.08.11.14.23.21.34s0-.1,0-.13a.88.88,0,0,0,0,.15c0,.06.1.49.06.2s0,.09,0,.16a.75.75,0,0,0,0,.15c0,.19.07-.37,0-.12l-.09.33c-.09.31.17-.28,0,0l-.08.12c-.07.15.24-.25.11-.13a.43.43,0,0,0-.09.1c-.17.19,0-.08.11-.08a.55.55,0,0,0-.14.09c-.13.1.33-.09.16-.07l-.13,0c-.16.07.36,0,.18,0H79.5c-.17,0,.33.1.16,0l-.18-.05c-.15,0,.19.14,0,0,0,0-.33-.22-.14-.08s0,0-.07-.07L78.91,24c-.26-.24-.5-.49-.74-.75s-.43-.47-.63-.72c0,0-.19-.23-.07-.08s0,0-.06-.08l-.33-.48-.26-.43c0-.1-.16-.44-.25-.49s.13.33,0,.07c0-.1-.07-.19-.1-.29s-.07-.29-.1-.43,0,.31,0,.12,0-.16,0-.24V20c0-.3-.09.32,0,0a1.09,1.09,0,0,0,0-.17c.07-.29-.16.27,0,0s.17-.28.27-.42a1.45,1.45,0,0,0,.16-1.15A1.5,1.5,0,0,0,74.13,18a4.47,4.47,0,0,0,0,4.82,11.37,11.37,0,0,0,1.48,2.1,13,13,0,0,0,1.65,1.67,3.48,3.48,0,0,0,2.91.91A2.89,2.89,0,0,0,82,26.15,3.93,3.93,0,0,0,82,22a15.17,15.17,0,0,0-1.77-2,6,6,0,0,1-.79-.88c.21.34,0,0,0,0a2.26,2.26,0,0,1-.16-.26l-.09-.18c-.07-.14-.06-.12,0,.09a1.46,1.46,0,0,1-.07-.19,1.5,1.5,0,1,0-2.89.8Z"/><path d="M90.15,35.93a7.71,7.71,0,0,0,2.2,3.1c.2.2.4.4.59.61l.12.15c.13.15-.16-.24,0-.07s.15.21.21.32c.18.32-.06-.24,0,0,0,.06.09.46,0,.16s0,.07,0,.14a.75.75,0,0,0,0,.15c0,.18.07-.38,0-.14l-.09.32c-.08.31.17-.3,0,0,0,0-.23.33,0,.11s-.08,0-.12.1c.18-.25.27-.17.12-.09l-.12.07c-.13.1.34-.11.17-.07l-.13,0c-.17.06.37,0,.19,0a.38.38,0,0,0-.15,0c-.18,0,.34.09.17,0s-.22,0-.23-.06l.15.07-.15-.08-.07,0c.17.1,0,0-.07,0l-.16-.15c-.24-.22-.48-.45-.71-.69s-.41-.44-.6-.67A1.15,1.15,0,0,1,91.3,39s-.18-.23-.06-.07l0-.07L91,38.54a9.25,9.25,0,0,1-.49-.87c-.1-.21,0,.08,0,.08s-.09-.26-.1-.28-.07-.27-.1-.41,0,.32,0,.12a1.64,1.64,0,0,1,0-.22c0-.07,0-.12,0-.18,0-.3-.09.32,0,0,0,0,0-.12.05-.17.06-.29-.17.27,0,0,.06-.1.35-.5.1-.19a1.54,1.54,0,0,0,0-2.12,1.52,1.52,0,0,0-2.12,0,4,4,0,0,0-1,2.56A5.1,5.1,0,0,0,88,39.32a9.71,9.71,0,0,0,1.44,2A11.49,11.49,0,0,0,91,42.92a3.33,3.33,0,0,0,2.83.77,3,3,0,0,0,1.84-1.33,3.74,3.74,0,0,0,0-4A14.69,14.69,0,0,0,94,36.41c-.13-.13-.26-.26-.38-.4l-.16-.18c-.24-.27,0,0,0,0s-.27-.42-.3-.47-.07-.16-.08-.17c.09.22.1.26,0,.11a1.27,1.27,0,0,1-.06-.18,1.5,1.5,0,0,0-2.89.8Z"/><path d="M4.3,36.83a7.57,7.57,0,0,0,2.21,3.1c.2.2.4.4.58.61l.13.15c.13.15-.17-.23-.06-.07l.22.32c.17.33-.06-.24,0,0,0,.06.09.46,0,.16s0,.07,0,.14,0,.1,0,.15.08-.38,0-.14,0,.21-.08.32c-.08.31.17-.29,0,0,0,.05-.24.33-.05.11s-.08.05-.12.1c.18-.25.27-.17.11-.09a.67.67,0,0,0-.11.07c-.14.1.34-.11.17-.07a.7.7,0,0,0-.14,0c-.16.06.37,0,.19,0a.38.38,0,0,0-.15,0c-.17,0,.35.09.17,0,0,0-.22,0-.23-.06l.15.07-.14-.08-.08,0c.17.1,0,0-.06,0l-.17-.15c-.24-.22-.47-.45-.7-.69s-.41-.44-.6-.67l-.15-.17,0-.07-.05-.07-.19-.27a7.53,7.53,0,0,1-.5-.87c-.1-.21,0,.08,0,.08s-.09-.26-.1-.28-.07-.27-.1-.41,0,.32,0,.12,0-.15,0-.22,0-.12,0-.18c0-.3-.1.32,0,0a1.09,1.09,0,0,0,0-.17c.06-.29-.16.27,0,0,0-.09.35-.5.09-.19a1.53,1.53,0,0,0,0-2.12,1.52,1.52,0,0,0-2.12,0,4.11,4.11,0,0,0-1,2.56,5.35,5.35,0,0,0,.64,2.41,9.82,9.82,0,0,0,1.44,2.05,11,11,0,0,0,1.58,1.55A3.32,3.32,0,0,0,8,44.59a3,3,0,0,0,1.83-1.33,3.74,3.74,0,0,0,0-4,14.06,14.06,0,0,0-1.71-1.91l-.37-.39c-.06-.06-.11-.13-.16-.19-.24-.27,0,0,0,0s-.28-.42-.3-.47a1,1,0,0,0-.09-.17c.09.22.11.26,0,.11a1.21,1.21,0,0,1,0-.18,1.5,1.5,0,0,0-2.9.8Z"/><path d="M18.48,53.05a8.7,8.7,0,0,0,2.41,3.32c.21.22.43.45.62.68s-.12-.18.1.12a3.87,3.87,0,0,1,.21.34c.12.2-.05-.1-.05-.14a1.42,1.42,0,0,0,.05.16c0,.06.1.48.06.19s0,.1,0,.16V58c0,.18.07-.37,0-.13l-.09.34c-.09.31.17-.29,0,0l-.07.12c-.08.16.23-.24.1-.13l-.09.1c-.16.19,0-.07.12-.08l-.15.09c-.13.11.33-.09.17-.07a.33.33,0,0,0-.14,0c-.16.06.36,0,.18,0a.38.38,0,0,0-.15,0c-.18,0,.32.09.15,0l-.18-.05c-.15,0,.19.14,0,0,0,0-.32-.22-.14-.08s0,0-.07-.07-.23-.21-.34-.32-.5-.49-.74-.75-.43-.47-.63-.71c0,0-.19-.24-.06-.09s0,0-.06-.08a5,5,0,0,1-.33-.47c-.1-.15-.18-.29-.27-.44s-.15-.43-.24-.48.12.33,0,.07c0-.1-.07-.2-.1-.29s-.07-.29-.11-.43,0,.31,0,.11,0-.16,0-.23v-.19c0-.3-.09.32,0,0,0-.06,0-.12,0-.18.07-.29-.16.27,0,0a2.63,2.63,0,0,1,.27-.41,1.52,1.52,0,0,0,.15-1.16,1.57,1.57,0,0,0-.69-.89,1.55,1.55,0,0,0-2.05.53,4.45,4.45,0,0,0,0,4.82,11.44,11.44,0,0,0,1.48,2.11,14.46,14.46,0,0,0,1.65,1.67,3.55,3.55,0,0,0,2.91.91A2.93,2.93,0,0,0,24.3,59.9a3.91,3.91,0,0,0-.07-4.2,15.26,15.26,0,0,0-1.77-2,5.45,5.45,0,0,1-.79-.87c.21.34,0,0,0,0l-.16-.26-.09-.18c-.07-.15-.06-.12,0,.08,0-.06-.05-.12-.07-.19a1.5,1.5,0,0,0-2.89.8Z"/><path d="M32.41,69.68a7.54,7.54,0,0,0,2.21,3.09c.2.2.39.4.58.62l.12.15c.14.15-.16-.24,0-.08a3.7,3.7,0,0,1,.21.33c.18.32-.06-.24,0,0s.09.47.05.17,0,.07,0,.13v.15c0,.18.07-.38,0-.14s-.06.22-.08.33c-.09.3.16-.3,0,0,0,.06-.23.34-.05.12s-.08,0-.11.1c.17-.25.26-.17.11-.09l-.12.06c-.13.1.34-.1.17-.07l-.13,0c-.17.06.37,0,.19,0h-.15c-.18,0,.34.09.17,0s-.22,0-.23-.06l.15.06-.15-.08s-.25-.13-.07,0,0,0-.07-.06L35,74.23l-.71-.69c-.2-.22-.41-.44-.6-.67l-.14-.18s-.18-.23-.06-.06l0-.07-.18-.27a6.89,6.89,0,0,1-.5-.88c-.1-.2,0,.08,0,.08s-.09-.25-.1-.27-.06-.28-.1-.42,0,.32,0,.13,0-.15,0-.23v-.18c0-.3-.09.33,0,0a1.09,1.09,0,0,0,0-.17c.06-.29-.17.28,0,0,.06-.1.35-.51.1-.19a1.54,1.54,0,0,0,0-2.12,1.51,1.51,0,0,0-2.12,0,4,4,0,0,0-1,2.55,5.14,5.14,0,0,0,.64,2.42,10.38,10.38,0,0,0,1.44,2.05,12.19,12.19,0,0,0,1.58,1.55,3.34,3.34,0,0,0,2.82.77,3.07,3.07,0,0,0,1.84-1.33,3.74,3.74,0,0,0,0-4,13.5,13.5,0,0,0-1.7-1.92l-.38-.39-.16-.18c-.23-.28,0,0,0,0s-.28-.42-.31-.47-.07-.15-.08-.16c.09.22.1.25,0,.1l-.06-.17a1.5,1.5,0,1,0-2.89.8Z"/><path d="M61.26,5.43,58.73,6.92a1.56,1.56,0,0,0-.69.9A1.53,1.53,0,0,0,58.19,9a1.51,1.51,0,0,0,.9.69,1.57,1.57,0,0,0,1.16-.15L62.78,8a1.5,1.5,0,0,0,.54-2,1.55,1.55,0,0,0-.9-.69,1.57,1.57,0,0,0-1.16.15Z"/><path d="M60.25,6.33c0,.07,0,.14-.07.22s.15-.29.07-.17,0,.07,0,.1l-.12.21L60,6.81s.25-.3.12-.15a4.64,4.64,0,0,1-.38.39l-.2.17c-.12.11.29-.19.14-.11l-.13.1c-.16.1-.32.2-.48.28l-.28.14c-.28.13.32-.12,0,0a5.93,5.93,0,0,1-1.19.3l.4,0a4.79,4.79,0,0,1-1.07,0l.4,0a2.89,2.89,0,0,1-.51-.11A1.5,1.5,0,1,0,56,10.7a6.1,6.1,0,0,0,4.35-.52,5.1,5.1,0,0,0,2.76-3,1.5,1.5,0,1,0-2.9-.8Z"/><path d="M77.17,21l-7.6,4.47a1.5,1.5,0,1,0,1.52,2.59l7.59-4.47a1.51,1.51,0,0,0,.54-2.05,1.53,1.53,0,0,0-2-.54Z"/><path d="M89.44,37.35l-.68.65-.38.33a2.2,2.2,0,0,1-.18.14c.08,0,.2-.15,0,0a15.68,15.68,0,0,1-1.7,1.07c-.29.16-.58.3-.88.44a1,1,0,0,1-.22.09c.11,0,.2-.08,0,0l-.49.19a15.83,15.83,0,0,1-2,.57,1.5,1.5,0,1,0,.8,2.89,15.38,15.38,0,0,0,7.79-4.21,1.5,1.5,0,1,0-2.12-2.12Z"/><path d="M36.13,72.7a7.32,7.32,0,0,0,4.36-3.38,1.54,1.54,0,0,0,.15-1.15,1.56,1.56,0,0,0-.69-.9,1.52,1.52,0,0,0-2.05.54,5.74,5.74,0,0,1-.43.66l.23-.3a5.57,5.57,0,0,1-1,1l.3-.23a6.4,6.4,0,0,1-1.38.81l.36-.15c-.22.09-.45.17-.67.24a1.55,1.55,0,0,0-.9.69,1.5,1.5,0,0,0,1.69,2.2Z"/><path d="M22.33,56.8l4.9-2.89a1.51,1.51,0,0,0,.54-2,1.53,1.53,0,0,0-2.06-.54l-4.9,2.89a1.5,1.5,0,0,0,1.52,2.59Z"/><path d="M7.87,39.54l5.07-3A1.5,1.5,0,0,0,11.42,34L6.36,37a1.51,1.51,0,0,0-.54,2,1.53,1.53,0,0,0,2.05.54Z"/><g id="Body-2" data-name="Body"><path d="M413.37,310.7a94.45,94.45,0,0,1,26.35,20.07c3.49,3.83,6.62,8,8.35,12.53,1.89,5,2,10.15,1.75,15.18a92.67,92.67,0,0,1-23.23,56.08l-.54.05c-19.12,24.48-52.95,37.87-83,51.81-11.12,5.15-23.54,10.13-36.85,9.47-8.63-.42-17.2-3.34-25.58-6.21-6.95-2.39-14-4.8-20.36-8.42C244,452.07,234,436.45,225.13,421.51l.19-.11C216.93,406,210,393.11,209.75,377.17s.07-33-10.66-45.88c-4.86-5.81-11.68-10.31-18.94-14.08C172,313,163,309.38,157,303.16c-11.8-12.31-7.61-31.64,4.33-44.85s28.15-21.23,40.69-33.86l.69.13c17.88-1.87,28.08-13,43-18.18,26-9,58.56-2.68,77.74,15a34,34,0,0,1,7.59,9.46c3.81,7.59,2.62,16.13,2.77,24.33.18,9.31,2.39,19,9.05,26.5,15.58,17.58,47.29,16.41,69.12,28.34" style="fill:#ffb807"/><path d="M412.61,312a95.1,95.1,0,0,1,20.08,13.88c5.84,5.31,12.08,11.65,14.47,19.36s1.27,16.55-.18,24.34a90.74,90.74,0,0,1-7.05,22,93.61,93.61,0,0,1-14.4,21.93l1.06-.44a2.59,2.59,0,0,0-1.6.49,15.64,15.64,0,0,0-1.65,2q-1.68,2-3.48,3.91a97.87,97.87,0,0,1-7.69,7.27,136.58,136.58,0,0,1-17.83,12.65c-12.95,7.86-26.77,14.16-40.54,20.43-14.57,6.63-29.53,14.86-46,14.59-8.87-.14-17.4-3-25.72-5.84-8.09-2.77-16.27-5.52-23.54-10.11-14.3-9-23.67-23.49-32.11-37.74l-.54,2.05.19-.11a1.54,1.54,0,0,0,.54-2.05C222.36,412.82,218,405,215,396.55a65,65,0,0,1-3.12-12,90.51,90.51,0,0,1-.66-12.43c-.23-15.5-1.48-32-12.78-43.79-5.82-6.09-13.27-10.32-20.75-14-7.13-3.53-15-6.87-20.32-13-10.21-11.57-5.57-28.74,3.14-39.68,10.4-13.05,25.74-21,38.12-31.89,1.54-1.36,3-2.76,4.49-4.22l-1.46.39a16.08,16.08,0,0,0,5.8-.53,48.7,48.7,0,0,0,6.81-1.88,77.37,77.37,0,0,0,11.66-5.38c7.54-4.14,14.76-8.72,23.07-11.19,17.08-5.07,36-3.8,52.5,2.71a66.56,66.56,0,0,1,21.84,13.75c3.86,3.72,6.93,8,8.16,13.25,1.18,5.07.86,10.34.81,15.49-.09,9.43,1.32,19.12,6.72,27.09,4.54,6.69,11.31,11.32,18.63,14.53,15.45,6.77,32.62,8.3,48.11,15q2.79,1.2,5.46,2.65c1.69.92,3.21-1.67,1.51-2.59-13.93-7.56-29.92-9.67-44.86-14.41-7-2.21-14-5-19.74-9.67-6.75-5.48-10.68-13.09-12.13-21.59-1.58-9.26.6-18.86-1.8-28-2.28-8.69-9.35-15.18-16.48-20.17-13.43-9.41-30.19-14-46.5-14.08a79,79,0,0,0-24.48,3.64c-7.65,2.45-14.44,6.64-21.42,10.53a79.09,79.09,0,0,1-11,5.29,51.2,51.2,0,0,1-6,1.83c-1.81.43-4,1.08-5.82.88-1.1-.13-1.58.52-2.33,1.25s-1.78,1.7-2.7,2.53q-2.55,2.29-5.24,4.44c-3.6,2.9-7.33,5.61-11,8.35-13.79,10.14-28.89,21.7-32.05,39.65-1.35,7.63-.18,15.71,4.47,22.06,5.25,7.19,13.55,11.08,21.31,14.91,8.33,4.11,16.77,8.64,22.9,15.79,5.77,6.73,8.48,15.38,9.57,24.05a128.72,128.72,0,0,1,.83,13c.11,4.55,0,9.13.48,13.66,1.06,9.27,4.4,18,8.5,26.3,2.18,4.44,4.56,8.79,6.93,13.14l.53-2-.18.11a1.51,1.51,0,0,0-.54,2.05c7.62,12.86,15.91,25.77,27.85,35.06,6.46,5,13.75,8.49,21.4,11.3,8.48,3.12,17.18,6.36,26.1,7.95a57.46,57.46,0,0,0,25.64-1.5c7.76-2.17,15.05-5.57,22.35-8.92C361.24,459.7,375.46,453.51,389,446c14.22-7.9,28-17.41,38.12-30.32l-1.06.44c1.83-.18,2.72-1.76,3.83-3.1q2-2.42,3.81-4.95a93.35,93.35,0,0,0,6.67-10.67,94.37,94.37,0,0,0,8.68-23c1.9-8.17,3.18-17.13,2-25.49-1.27-8.92-6.94-16-13.14-22.21a97.11,97.11,0,0,0-23.75-17.28c-1.72-.89-3.23,1.7-1.52,2.6Z"/></g><path d="M62.77,3.24a8.78,8.78,0,0,0,2.4,3.32c.22.22.43.45.63.68s-.12-.18.09.12c.08.11.15.23.22.34s0-.1,0-.13a1.31,1.31,0,0,0,0,.15c0,.06.1.48.06.19s0,.1,0,.16,0,.11,0,.16.08-.37,0-.12,0,.22-.08.33c-.09.31.16-.28,0,0a.57.57,0,0,0-.08.13c-.07.15.24-.25.11-.14l-.1.11c-.16.19,0-.08.12-.08a.55.55,0,0,0-.15.08c-.13.11.34-.08.17-.07a.5.5,0,0,0-.13,0c-.17.07.35,0,.18,0h-.16c-.18,0,.33.09.16,0A.61.61,0,0,0,66,8.43c-.15,0,.19.13,0,0l-.14-.09c.16.12,0,0-.07-.07l-.35-.31c-.25-.25-.5-.5-.73-.75s-.43-.48-.63-.72c0,0-.19-.24-.07-.08s0,0-.06-.09l-.33-.47c-.09-.14-.18-.29-.26-.44s-.16-.43-.25-.48.13.33,0,.07c0-.1-.07-.19-.1-.29S63,4.4,63,4.26s0,.31,0,.11a1.85,1.85,0,0,0,0-.23C63,4.08,63,4,63,4c0-.3-.09.33,0,0a1,1,0,0,0,0-.18c.07-.28-.16.27,0,0a4.32,4.32,0,0,1,.27-.42,1.5,1.5,0,0,0-.54-2,1.54,1.54,0,0,0-2,.54,4.49,4.49,0,0,0,0,4.82,11.42,11.42,0,0,0,1.49,2.1,13.7,13.7,0,0,0,1.65,1.67,3.48,3.48,0,0,0,2.91.91,2.85,2.85,0,0,0,1.86-1.31,3.91,3.91,0,0,0-.06-4.2,15.25,15.25,0,0,0-1.77-2A5.47,5.47,0,0,1,66,3c.2.34,0,0,0,0l-.16-.26a1.62,1.62,0,0,0-.1-.18c-.06-.15,0-.12,0,.08a1.34,1.34,0,0,1-.07-.18,1.5,1.5,0,1,0-2.89.79Z"/><path d="M299.85,398.19c8.33-2.26,15.55-6.64,22.62-11l38.58-23.59.06.05a22,22,0,0,0-13.66-2.8l-.31-.06c-13.68,11.9-31,20.24-48.16,28.42l-.4,0a8.44,8.44,0,0,0,.69,9.2"/><path d="M300.25,399.63c8.29-2.28,15.69-6.66,23-11.11l24.59-15,14-8.55L360,364.7l.05.05,1.82-2.36a23.47,23.47,0,0,0-13.16-3.11,4.73,4.73,0,0,0-2.62.49c-1,.71-1.86,1.58-2.8,2.34-1.86,1.51-3.78,2.94-5.73,4.32a197.1,197.1,0,0,1-25.2,14.65c-2.41,1.21-4.82,2.4-7.25,3.57l-3.64,1.76-2,1a6.6,6.6,0,0,1-.81.38c.28-.09.26,0-.05,0a1.49,1.49,0,0,0-1.3.74,10.13,10.13,0,0,0,.69,10.72c1.11,1.56,3.71.07,2.59-1.51a7.17,7.17,0,0,1-.68-7.69l-1.3.74c1.48.08,3.09-1.1,4.4-1.73l5.25-2.54c3.49-1.7,7-3.43,10.41-5.23a184.45,184.45,0,0,0,19.53-11.59,117.51,117.51,0,0,0,10-7.75l-1.46.39a14.55,14.55,0,0,0,3,0,20,20,0,0,1,3.79.29,20.34,20.34,0,0,1,6.8,2.46c1.42.83,3.16-1.24,1.82-2.36l-.06-.05a1.56,1.56,0,0,0-1.82-.23l-24.16,14.77c-7.73,4.72-15.35,9.71-23.3,14a63.22,63.22,0,0,1-13.38,5.59,1.5,1.5,0,0,0,.8,2.89Z"/><g id="Neck"><path d="M253.14,260.64Q171.86,156.6,82.86,57.15L57.19,74.52q81.9,102.11,164.59,204.75" style="fill:#5c4d3c"/><path d="M254.2,259.58q-15.88-20.32-32-40.46T189.52,179Q173,159,156.3,139.24t-33.8-39.4Q105.54,80.3,88.3,61l-4.38-4.89a1.51,1.51,0,0,0-1.82-.24L59.63,71.07l-3.2,2.16a1.53,1.53,0,0,0-.3,2.35q16,20,32.05,39.94t32,39.79q16.08,20,32.17,40l32.22,40q16,20,32.11,39.88l4.08,5.06c1.21,1.51,3.32-.63,2.12-2.12q-16.14-20-32.27-40.08T158.5,198.27q-16.09-20-32.18-40l-32.12-40L62.29,78.5l-4-5L58,75.82,80.42,60.6l3.2-2.16-1.82-.23q17.34,19.38,34.44,39t33.87,39.36q16.77,19.75,33.29,39.72t32.7,40.07q16.11,20,32,40.23l4,5.12c1.19,1.52,3.29-.61,2.12-2.12Z"/></g><path d="M77.77,61.08q25.33,31,50.8,61.82,25.29,30.65,50.7,61.18,25.62,30.79,51.38,61.49t51.48,61.07q25.83,30.51,51.77,60.9l6.47,7.57c1.25,1.47,3.37-.66,2.12-2.12q-26.07-30.51-52-61.12-25.71-30.35-51.31-60.81-25.78-30.67-51.43-61.46t-50.93-61.4Q111.43,97.47,86.18,66.63L79.89,59c-1.22-1.49-3.33.64-2.12,2.13Z"/><path d="M61.86,73.06q24.83,30,49.38,60.2T160,193.82q24.2,30.36,48.1,60.94t47.6,61.48q23.55,30.72,46.8,61.66l5.86,7.79c1.14,1.53,3.75,0,2.59-1.51Q287.62,353.1,264,322.23T216.6,260.82q-24-30.72-48.21-61.22t-48.85-60.85Q95,108.51,70.24,78.5L64,70.94c-1.23-1.49-3.35.64-2.12,2.12Z"/><path d="M71.69,64.68q25.1,31.13,50.41,62.09,25.16,30.74,50.53,61.31,25.59,30.82,51.42,61.47t51.73,60.94q26,30.4,52.23,60.62l6.49,7.47c1.27,1.46,3.38-.67,2.12-2.12q-26.36-30.31-52.5-60.82Q258.22,285.4,232.53,255q-25.84-30.63-51.48-61.44-25.5-30.66-50.78-61.51T80,70.21l-6.18-7.66c-1.21-1.5-3.32.64-2.12,2.13Z"/><path d="M68.4,69.64l49.8,62q24.7,30.72,49.38,61.47,24.43,30.49,48.59,61.22t47.58,62c7.56,10.09,15,20.29,22.5,30.42,7.22,9.75,14.63,19.39,22.78,28.38q3.14,3.47,6.42,6.78c1.36,1.38,3.48-.74,2.12-2.12-17.5-17.7-31.49-38.48-46.3-58.38q-23.19-31.15-47.13-61.73-24-30.81-48.5-61.28Q151.07,167.67,126.38,137L76.77,75.29l-6.25-7.77c-1.21-1.51-3.32.63-2.12,2.12Z"/><path d="M326.73,377.14,278.5,319.55l-13.62-16.26c-1.24-1.48-3.35.65-2.12,2.12L311,363l13.61,16.26c1.24,1.48,3.36-.65,2.13-2.12Z"/><path d="M68.68,66.13Q48.31,57.58,27.27,50.74c-1.84-.6-2.63,2.3-.79,2.89q21,6.84,41.4,15.39a1.51,1.51,0,0,0,1.85-1,1.53,1.53,0,0,0-1-1.84Z"/><path d="M68.46,64.72Q47.6,51.88,26,40.4,19.79,37.13,13.57,34c-1.72-.87-3.24,1.72-1.51,2.59Q33.92,47.66,55,60.12q6,3.54,11.91,7.19c1.65,1,3.16-1.58,1.52-2.59Z"/><path d="M60.8,69.5q-10.09-2.35-20.35-3.86a1.56,1.56,0,0,0-1.85,1,1.51,1.51,0,0,0,1,1.84Q49.91,70,60,72.39c1.88.43,2.68-2.46.8-2.89Z"/><path d="M72.14,64.87A331.18,331.18,0,0,1,70.65,26.3c0-1.94-3-1.94-3,0a331.18,331.18,0,0,0,1.49,38.57c.19,1.91,3.19,1.92,3,0Z"/><path d="M68.94,64.24A484.75,484.75,0,0,1,56.57,9.29c-.31-1.9-3.21-1.09-2.89.8A480.46,480.46,0,0,0,66.05,65a1.5,1.5,0,0,0,2.89-.8Z"/><path d="M78.13,60.25A166,166,0,0,1,82.61,42c.56-1.85-2.33-2.64-2.9-.8a165.9,165.9,0,0,0-4.47,18.26,1.54,1.54,0,0,0,1.05,1.85,1.52,1.52,0,0,0,1.84-1Z"/><ellipse id="Hole" cx="255.18" cy="291.6" rx="30.98" ry="36.78" transform="translate(-47.19 533.91) rotate(-87.52)" style="stroke:#000;stroke-miterlimit:10"/></svg>