<svg xmlns="http://www.w3.org/2000/svg" viewBox="0 0 450 450"><path d="M49.03 19.48c-2.1 1.7-4.2 3.41-6.3 5.11-.56.46-.51 1.49 0 1.96.6.55 1.35.49 1.96 0 2.1-1.7 4.2-3.41 6.3-5.11.56-.46.51-1.49 0-1.96-.6-.55-1.35-.49-1.96 0Z"/><path d="M409.63 266.73c10.21 3.4 19.61 8.62 27.45 15.23 3.75 3.16 7.19 6.7 9.32 10.84 2.33 4.53 2.99 9.57 3.22 14.54.96 20.35-4.91 40.94-16.72 58.6l-.52.14c-15.95 27.07-47.22 45.75-74.79 64.35-10.19 6.88-21.67 13.8-34.57 15.37-8.37 1.02-16.92-.4-25.29-1.82-6.95-1.18-13.97-2.37-20.49-4.84-16.57-6.28-27.84-19.86-37.89-32.98l.17-.14c-9.65-13.65-17.67-25.06-19.5-40.59-1.83-15.53-3.28-32.26-14.93-43.02-5.27-4.87-12.31-8.13-19.69-10.61-8.3-2.79-17.37-4.79-23.75-9.88-12.62-10.06-10.55-29.63-.37-44.51s24.99-25.4 35.8-39.81h.68c17.05-4.79 25.76-17.38 39.59-24.86 24.15-13.08 56.2-12.34 76.49 1.76 3.24 2.25 6.22 4.83 8.28 7.97 4.44 6.78 4.16 15.32 5.14 23.3 1.11 9.06 4.22 18.14 11.41 24.37 16.8 14.58 47.26 8.17 69.53 16.19" style="fill:#6e3737"/><path d="M409.26 268.06c7.42 2.5 14.5 5.96 20.96 10.4s12.78 9.52 15.72 16.61 2.71 15.76 2.16 23.35c-.56 7.71-2.13 15.34-4.55 22.67-2.82 8.55-6.85 16.65-11.83 24.15l.83-.64c-1.48.4-1.94 1.79-2.71 3.01-.93 1.48-1.91 2.94-2.93 4.36-2.07 2.91-4.32 5.68-6.69 8.36-4.82 5.45-10.14 10.45-15.7 15.13-11.44 9.64-23.92 17.98-36.36 26.25-12.69 8.44-25.4 18.41-40.55 21.87-8.5 1.94-17.16 1.06-25.68-.31-8.48-1.37-17.19-2.62-25.21-5.82-15.38-6.15-26.37-19.2-36.18-32l-.22 1.68.17-.14c.44-.36.54-1.22.22-1.68-4.84-6.84-9.76-13.71-13.52-21.22-1.79-3.57-3.26-7.29-4.31-11.14s-1.52-7.89-1.99-11.91c-1.72-14.57-4.11-30.71-16.06-40.71-6.49-5.43-14.51-8.49-22.49-10.99-7.47-2.34-15.88-4.39-21.6-10.1-10.38-10.36-6.68-27.29.07-38.54 8.7-14.49 22.77-24.78 33.59-37.54 1.34-1.58 2.63-3.21 3.89-4.87l-1.2.69c1.85.02 3.75-.85 5.46-1.52 2.03-.79 4.02-1.7 5.94-2.74 3.65-1.96 7.04-4.33 10.32-6.85 6.53-5.01 12.7-10.52 20.03-14.37 15.7-8.25 34.65-10.78 52-7.13 8.1 1.7 15.93 4.8 22.71 9.6 4.02 2.85 7.55 6.37 9.35 11.03 1.69 4.39 2.07 9.13 2.48 13.78.79 8.91 2.34 17.96 7.77 25.35 4.77 6.5 11.78 10.48 19.41 12.73 16.06 4.72 33.21 3.03 49.42 7.05 1.98.49 3.94 1.08 5.86 1.76 1.68.6 2.4-2.07.74-2.67-15.14-5.39-31.58-4.29-47.24-6.98-7.12-1.23-14.33-3.26-20.2-7.65-6.94-5.2-10.52-13.29-12.03-21.63-1.55-8.57-.64-17.91-5.05-25.75-3.99-7.11-11.91-11.88-19.2-15.05-15.12-6.58-32.5-7.45-48.48-3.78-8.12 1.86-16.12 4.95-23.17 9.42-6.58 4.17-12.31 9.49-18.62 14.03-3.23 2.32-6.62 4.44-10.23 6.11-1.97.91-3.99 1.64-6.05 2.3-.58.19-1.4.09-1.92.4-.86.5-1.47 1.77-2.08 2.54-5.74 7.17-12.45 13.48-18.91 19.98-11.65 11.72-23.6 25.47-23.86 42.93-.11 7.12 2.15 14.25 7.26 19.34 6.14 6.13 15.03 8.36 23.06 10.88 8.69 2.73 17.63 6.2 23.99 13 5.58 5.96 8.42 13.79 10.1 21.65.88 4.14 1.47 8.34 1.98 12.55s.87 8.46 1.84 12.61c1.99 8.47 6.08 16.23 10.78 23.5 2.49 3.85 5.14 7.59 7.78 11.33l.22-1.68-.17.14c-.42.35-.56 1.23-.22 1.68 8.9 11.61 18.52 23.28 31.6 30.36 7.28 3.94 15.23 5.92 23.33 7.36 8.75 1.56 17.73 3.34 26.66 2.89 16.36-.82 30.01-10.15 43.18-18.94 12.65-8.44 25.42-16.73 37.41-26.12 12.83-10.04 24.89-21.52 33.26-35.63l-.83.64c1.62-.44 2.31-2.23 3.15-3.58 1.17-1.88 2.27-3.79 3.32-5.74 1.96-3.66 3.7-7.45 5.21-11.32a98.002 98.002 0 0 0 6.05-24.43c.47-4.08.68-8.2.6-12.31s-.35-8.63-1.5-12.77c-2.22-8.04-8.2-13.85-14.64-18.78-7.51-5.74-16.01-10.09-24.96-13.1-1.69-.57-2.42 2.1-.74 2.67Z"/><path d="M42.16 22.14c10.77 9.14 20.78 18.95 29.93 29.34 1.67 1.89 3.34 3.87 4.02 6.19 1.56 5.33-2.44 10.8-6.8 14.96-4.31 4.12-9.2 7.79-14.51 10.89-2.85 1.67-6.37 3.23-9.49 2.17-1.48-.5-2.62-1.53-3.7-2.52L13.03 56.96c-3.38-3.1-7-6.81-6.33-11.13.27-1.75 1.24-3.37 2.27-4.91 5.41-8.13 12.87-15.28 21.67-20.77.88-.55 1.78-1.09 2.8-1.37 3.75-1.06 7.34 1.51 10.05 3.87" style="fill:#6e3737"/><path d="M41.18 23.12c10.07 8.56 19.58 17.77 28.4 27.61 1.94 2.16 4.36 4.44 5.2 7.31s-.21 5.57-1.66 7.94c-1.61 2.62-3.8 4.81-6.06 6.87S62.2 77 59.57 78.83s-5.24 3.63-8.11 4.87c-1.3.56-2.73 1-4.16.96-1.63-.05-2.93-.86-4.12-1.92-5.17-4.56-10.17-9.32-15.25-13.98s-10.31-9.22-15.27-14.03c-1.95-1.89-4.2-4.21-4.61-7.03s1.68-5.53 3.27-7.75c3.81-5.34 8.47-10.08 13.62-14.13 1.37-1.07 2.78-2.09 4.22-3.06s2.96-2.17 4.64-2.64c3.27-.91 6.39 1.52 8.7 3.52 1.34 1.16 3.31-.79 1.96-1.96-2.37-2.05-5.05-4.07-8.26-4.45-3.38-.41-6.14 1.57-8.8 3.38-5.45 3.71-10.44 8.1-14.72 13.12-2.11 2.48-4.19 5.12-5.83 7.95-1.55 2.67-2.13 5.59-.95 8.53s3.54 5.33 5.85 7.47c2.77 2.57 5.57 5.11 8.36 7.67 5.74 5.26 11.48 10.53 17.22 15.79 2.43 2.23 5.02 5.41 8.4 6.11 3.15.65 6.32-.61 9.04-2.11 5.97-3.29 11.66-7.58 16.45-12.43 4.28-4.34 8.51-10.62 5.67-16.86-1.58-3.47-4.68-6.34-7.21-9.12-2.71-2.97-5.49-5.88-8.32-8.73a292.796 292.796 0 0 0-18.22-16.82c-1.35-1.15-3.32.8-1.96 1.96Z"/><path d="M65.17 32.3c-2.1 1.7-4.2 3.41-6.3 5.11-.56.46-.51 1.49 0 1.96.6.55 1.35.49 1.96 0 2.1-1.7 4.2-3.41 6.3-5.11.56-.46.51-1.49 0-1.96-.6-.55-1.35-.49-1.96 0ZM75.36 47.09c-.06.1-.13.2-.2.29-.03.05-.07.09-.1.14-.09.12.2-.24.04-.05s-.31.36-.47.53-.33.32-.5.46c-.05.04-.09.08-.14.12-.04.03-.21.16-.05.04s-.03.02-.05.03c-.05.04-.1.07-.15.11-.4.27-.82.51-1.26.72-.06.03-.12.05-.17.08-.14.07.29-.12.05-.02-.12.05-.24.09-.36.14-.24.09-.49.16-.74.23-.62.17-1.06.88-.86 1.51s.85 1.04 1.51.86c2.26-.61 4.29-1.96 5.56-3.94.35-.54.13-1.38-.44-1.68-.61-.32-1.31-.14-1.68.44ZM34.51 85.07c1.37-.89 2.61-2.06 3.44-3.47.3-.51.13-1.25-.4-1.54s-1.22-.14-1.54.4c-.16.28-.34.54-.54.8l.18-.23c-.52.67-1.13 1.26-1.79 1.77l.23-.18c-.23.18-.46.34-.71.5s-.44.39-.52.67c-.07.27-.04.63.11.87.32.49 1.01.75 1.54.4ZM20.43 72.16l4.06-3.3c.26-.21.41-.66.41-.98 0-.34-.15-.74-.41-.98s-.61-.42-.98-.41c-.39.02-.68.16-.98.41l-4.06 3.3c-.26.21-.41.66-.41.98 0 .34.15.74.41.98s.61.42.98.41c.39-.02.68-.16.98-.41ZM5.48 57.71l3.9-3.12c.25-.2.39-.64.39-.94 0-.33-.14-.72-.39-.94s-.59-.41-.94-.39c-.37.02-.65.16-.94.39l-3.9 3.12c-.25.2-.39.64-.39.94 0 .33.14.72.39.94s.59.41.94.39c.37-.02.65-.16.94-.39Z"/><path d="M404.86 257.51c9.71 3.53 18.71 8.74 26.29 15.23 3.62 3.1 6.97 6.55 9.1 10.53 2.33 4.35 3.1 9.14 3.48 13.84 1.53 19.27-3.37 38.55-13.94 54.88l-.48.12c-14.18 25.1-43.03 41.81-68.41 58.55-9.38 6.19-19.97 12.38-32.06 13.47-7.84.71-15.93-.9-23.85-2.49-6.58-1.32-13.21-2.66-19.43-5.2-15.78-6.44-26.8-19.62-36.65-32.33l.16-.13c-9.49-13.2-17.39-24.23-19.58-38.96-2.19-14.73-4.07-30.59-15.36-41.12-5.11-4.76-11.83-8.06-18.84-10.63-7.89-2.89-16.48-5.05-22.65-10.06-12.18-9.89-10.83-28.32-1.71-42.08 9.12-13.75 22.74-23.24 32.47-36.53l.64.03c15.9-4.01 23.71-15.65 36.49-22.3 22.33-11.63 52.5-9.95 72.02 3.99 3.12 2.23 6 4.76 8.03 7.79 4.39 6.54 4.38 14.6 5.54 22.18 1.32 8.6 4.53 17.28 11.48 23.39 16.25 14.29 44.72 9.16 65.91 17.42" style="fill:#ffb807"/><path d="M404.49 258.85c6.98 2.56 13.64 6 19.73 10.27 5.76 4.03 11.81 8.91 15.06 15.29s3.51 14.93 3.29 22.24-1.38 14.58-3.43 21.61c-2.38 8.16-5.96 15.89-10.55 23.03l.83-.64c-1.43.35-1.84 1.71-2.56 2.88-.85 1.4-1.75 2.78-2.69 4.12a91.602 91.602 0 0 1-6.19 7.85c-4.4 5-9.29 9.56-14.4 13.82-10.75 8.95-22.53 16.57-34.25 24.18-11.94 7.76-23.99 16.91-38.47 19.01-8.19 1.19-16.46-.39-24.48-2s-15.75-3.08-22.98-6.53c-14.02-6.68-24.19-18.82-33.52-30.85v1.96l.16-.13c.43-.35.54-1.22.22-1.68-4.71-6.55-9.5-13.11-13.26-20.26-1.77-3.37-3.28-6.87-4.4-10.51s-1.71-7.38-2.27-11.15c-2.06-13.92-4.71-29.02-15.72-38.89-5.96-5.35-13.43-8.61-20.91-11.23-7.23-2.53-15.29-4.59-21.1-9.88-10.23-9.3-8.59-24.91-2.56-36.06 7.52-13.89 20.94-23.44 30.93-35.38 1.26-1.5 2.46-3.04 3.62-4.62l-1.2.69c1.74.08 3.57-.72 5.19-1.31 1.92-.7 3.8-1.53 5.61-2.48 3.41-1.78 6.59-3.97 9.64-6.3 6.11-4.66 11.89-9.73 18.85-13.12 14.83-7.23 32.56-8.61 48.5-4.6 7.75 1.95 15.21 5.23 21.62 10.05 3.81 2.86 7.08 6.37 8.79 10.89 1.59 4.2 2.06 8.7 2.6 13.13 1.02 8.45 2.94 16.89 8.18 23.8 4.64 6.12 11.26 10.03 18.49 12.38 15.12 4.91 31.43 3.9 46.71 8.17 1.88.53 3.74 1.14 5.56 1.84 1.66.64 2.38-2.03.74-2.67-14.19-5.47-29.72-5.02-44.46-8-6.87-1.39-13.79-3.56-19.41-7.89-6.51-5.01-10.16-12.53-11.89-20.42s-1.26-16.81-5.28-24.28c-3.8-7.07-11.42-11.92-18.5-15.25-14.05-6.62-30.33-8.21-45.53-5.32-7.58 1.44-15.1 4.06-21.72 8.06-6.15 3.72-11.44 8.62-17.27 12.78-3.07 2.19-6.3 4.17-9.76 5.68-1.83.8-3.78 1.56-5.73 1.99-.51.12-1.15 0-1.62.28-.86.5-1.49 1.83-2.09 2.6-5.35 6.76-11.68 12.65-17.7 18.79s-11.56 12.14-15.44 19.47c-3.39 6.4-5.43 13.75-5 21.03.41 6.87 3.13 13.52 8.32 18.16 6.26 5.59 14.67 7.82 22.4 10.54 8.14 2.86 16.33 6.61 22.18 13.16 5.23 5.86 8.03 13.37 9.8 20.92s2.19 15.81 4.28 23.49 6.25 15.39 10.83 22.29c2.44 3.68 5.02 7.26 7.6 10.84l.22-1.68-.16.13c-.63.51-.42 1.42 0 1.96 8.51 10.96 17.66 21.93 29.8 29.02 6.67 3.89 13.96 6.12 21.46 7.75 8.03 1.74 16.26 3.62 24.5 3.82 15.57.37 28.61-7.76 41.17-15.96 11.81-7.72 23.78-15.24 34.96-23.86 11.95-9.21 23.16-19.82 30.68-33.04l-.83.64c1.55-.38 2.2-2.13 2.96-3.41 1.03-1.71 1.99-3.46 2.9-5.24 1.82-3.57 3.41-7.27 4.75-11.05 2.65-7.5 4.28-15.36 4.86-23.29.29-3.96.31-7.94.07-11.91s-.71-8.04-2-11.85c-2.55-7.52-8.45-13.05-14.59-17.77-7.08-5.44-15.01-9.68-23.39-12.75-1.68-.61-2.4 2.06-.74 2.67Z"/><path d="M313.39 352.99c7.24-3.15 13.2-8.13 19.04-13.03 10.62-8.92 21.24-17.84 31.86-26.75l.06.04c-3.84-1.67-8.48-1.98-12.67-.85l-.29-.02c-10.85 12.76-25.47 22.7-39.89 32.45l-.37.03c-1.1 2.87-.41 6.16 1.77 8.44"/><path d="M314.09 354.19c7.22-3.19 13.32-8.22 19.32-13.25 6.76-5.68 13.53-11.36 20.29-17.04 3.86-3.24 7.71-6.48 11.57-9.71l-1.68.22.06.04 1.07-2.53c-3.94-1.66-8.4-1.98-12.56-1.05-.83.18-1.41.21-2.02.87-.77.85-1.51 1.73-2.29 2.57-1.47 1.59-2.99 3.13-4.55 4.62-6.4 6.13-13.47 11.51-20.7 16.62-2.07 1.46-4.16 2.9-6.25 4.33-.98.67-1.97 1.34-2.96 2.01-.55.38-1.11.75-1.66 1.13-.18.12-.38.24-.55.38.07-.05.35.06-.04.09-.65.05-1.12.4-1.33 1.02-1.22 3.45-.31 7.12 2.13 9.78 1.2 1.32 3.16-.64 1.96-1.96-1.81-1.97-2.3-4.58-1.41-7.09l-1.33 1.02c.89-.07 1.44-.47 2.17-.97.99-.67 1.97-1.34 2.96-2.01 1.85-1.26 3.69-2.52 5.53-3.8 3.72-2.59 7.39-5.23 10.98-8 7.06-5.44 13.79-11.33 19.59-18.11l-.98.41c.92.06 1.87-.35 2.78-.48 1.1-.16 2.21-.2 3.32-.16 2.25.08 4.42.59 6.49 1.46 1.5.63 2.32-1.72 1.07-2.53l-.06-.04c-.55-.35-1.22-.17-1.68.22-6.7 5.63-13.4 11.25-20.1 16.88-6.36 5.34-12.58 10.95-19.24 15.93-3.52 2.63-7.24 4.98-11.27 6.76-1.63.72-.22 3.1 1.4 2.39Z"/><path d="M254.04 231.59c-57.57-57.31-117.32-112.92-179.09-166.7L53.97 84.25c57.78 56.06 115.87 112.31 174.11 168.59" style="fill:#5c4d3c"/><path d="M255.01 230.62c-22.57-22.46-45.43-44.63-68.57-66.49s-46.49-43.34-70.16-64.56a3792.44 3792.44 0 0 0-40.36-35.66c-.58-.51-1.38-.54-1.96 0-6.12 5.65-12.24 11.3-18.36 16.94l-2.62 2.42c-.54.5-.52 1.45 0 1.96 22.62 21.95 45.26 43.9 67.9 65.83 22.58 21.87 45.17 43.74 67.77 65.6 12.81 12.39 25.63 24.78 38.44 37.17 1.28 1.24 3.24-.72 1.96-1.96-22.75-21.99-45.49-43.98-68.23-65.98-22.57-21.84-45.12-43.69-67.67-65.55-12.74-12.35-25.47-24.7-38.21-37.06v1.96c6.12-5.65 12.24-11.3 18.36-16.94l2.62-2.42h-1.96c24.13 21.01 47.99 42.34 71.57 63.97a3619.15 3619.15 0 0 1 69.31 65.27c12.82 12.4 25.56 24.89 38.2 37.47 1.26 1.26 3.22-.7 1.96-1.96Z"/><path d="M70.7 69.04c17.78 16.93 35.6 33.82 53.46 50.67 17.87 16.86 35.77 33.69 53.7 50.47 17.88 16.73 35.8 33.43 53.75 50.09 18.03 16.73 36.09 33.42 54.19 50.08 18.04 16.6 36.12 33.17 54.23 49.7l6.87 6.27c1.31 1.2 3.28-.75 1.96-1.96-18.19-16.58-36.34-33.2-54.46-49.86-18.11-16.65-36.18-33.33-54.22-50.06-17.96-16.65-35.89-33.34-53.78-50.07-17.95-16.78-35.86-33.6-53.73-50.45s-35.56-33.6-53.29-50.46l-6.72-6.39c-1.29-1.23-3.25.73-1.96 1.96ZM57.84 82.16a7681.594 7681.594 0 0 1 103.82 99.49c17.07 16.67 34.27 33.63 51.29 50.56s33.68 33.67 50.39 50.62c16.76 16.99 33.44 34.07 50.03 51.22 2.07 2.13 4.13 4.27 6.19 6.41 1.24 1.28 3.2-.67 1.96-1.96-16.63-17.23-33.35-34.38-50.15-51.45s-33.47-33.86-50.33-50.67-34.07-33.82-51.23-50.61-34.19-33.3-51.4-49.83S83.75 102.8 66.3 86.36c-2.17-2.05-4.35-4.1-6.53-6.15-1.3-1.22-3.26.73-1.96 1.96ZM65.66 73.15c17.65 17.05 35.37 34.04 53.14 50.96 17.79 16.94 35.65 33.81 53.56 50.61a10060.36 10060.36 0 0 0 108.18 100 9802.658 9802.658 0 0 0 61.49 55.55c1.32 1.19 3.29-.77 1.96-1.96a9915.834 9915.834 0 0 1-54.86-49.52c-18.21-16.56-36.36-33.18-54.45-49.87s-35.95-33.29-53.83-50.04-35.8-33.65-53.61-50.57c-17.73-16.85-35.4-33.76-53-50.73-2.21-2.13-4.41-4.26-6.62-6.39-1.28-1.24-3.24.72-1.96 1.96ZM63.31 78.16c17.64 17.09 35.28 34.17 52.92 51.26 17.36 16.81 34.73 33.62 52.07 50.46s34.57 33.67 51.69 50.67 33.77 33.81 50.36 51.01c8.14 8.44 16.17 16.97 24.26 25.46 7.73 8.1 15.61 16.08 24.11 23.38 2.15 1.84 4.33 3.64 6.56 5.39 1.38 1.09 3.36-.86 1.96-1.96-17.98-14.14-33.13-31.49-48.9-47.96-16.52-17.25-33.29-34.26-50.2-51.13-17.08-17.03-34.31-33.91-51.6-50.74-17.29-16.82-34.62-33.58-51.95-50.36-17.58-17.02-35.15-34.05-52.73-51.07l-6.57-6.36c-1.28-1.24-3.24.72-1.96 1.96ZM335.16 330.22c-16.93-15.75-33.86-31.49-50.78-47.24l-14.25-13.25c-1.3-1.21-3.26.74-1.96 1.96 16.93 15.75 33.86 31.49 50.78 47.24 4.75 4.42 9.5 8.84 14.25 13.25 1.3 1.21 3.26-.74 1.96-1.96Z"/><path d="M63.47 75.07a479.912 479.912 0 0 0-39.28-8.97c-1.74-.32-2.49 2.35-.74 2.67 13.21 2.44 26.32 5.42 39.28 8.97 1.72.47 2.45-2.2.74-2.67Z"/><path d="M63.08 73.84a693.935 693.935 0 0 0-53.7-21.6c-1.68-.6-2.41 2.08-.74 2.67a687.97 687.97 0 0 1 53.04 21.32c1.61.73 3.02-1.66 1.4-2.39ZM56.42 79.14c-6.27-.59-12.55-.91-18.84-.97-1.78-.02-1.78 2.75 0 2.77 6.29.06 12.58.38 18.84.97 1.77.17 1.76-2.6 0-2.77Z"/><path d="M66.23 73.23a309.893 309.893 0 0 1-6.12-35.16c-.2-1.75-2.97-1.77-2.77 0 1.4 12.07 3.46 24.06 6.22 35.89.41 1.73 3.07 1 2.67-.74Z"/><path d="M63.22 73.09a454.991 454.991 0 0 1-17.9-48.97c-.51-1.7-3.19-.98-2.67.74 5.1 16.88 11.19 33.44 18.18 49.63.7 1.63 3.09.22 2.39-1.4ZM71.1 68.19c.25-5.73.82-11.44 1.7-17.11.11-.74-.19-1.49-.97-1.7-.66-.18-1.59.22-1.7.97-.92 5.91-1.54 11.87-1.8 17.85-.08 1.78 2.69 1.78 2.77 0Z"/><ellipse cx="259.75" cy="259.99" rx="33.51" ry="28.95" style="stroke:#000;stroke-miterlimit:10;stroke-width:.92px" transform="rotate(-6.15 259.89 260.2)"/><path d="M20.92 72.33c-.13-.82-.75-1.46-1.52-1.62 0-.02.01-.04.01-.06a.745.745 0 0 0-.75-.73c-.16 0-.29.07-.41.16-.04-.11-.08-.22-.14-.31-.09-.75-.55-1.32-1.09-1.31-.35.01-.66.28-.84.67-.27.15-.44.4-.41.67 0 .09.05.16.09.24-.33.08-.57.38-.56.74.01.34.24.61.55.69.07.23.24.41.47.48.03.04.06.08.09.11-.19.07-.33.19-.32.32 0 .21.33.36.73.35.09 0 .18-.02.26-.04v.03c.04 1.1.94 1.97 2.01 1.93.03 0 .07-.01.1-.01.82.39 1.74.16 2.1-.53.3-.57.13-1.28-.35-1.78Z" style="fill:#fad643"/><path d="M15.41 68.91c-.67 1.17-.33 2.46.41 3.5.41.58.91 1.1 1.45 1.58s1.08.95 1.69 1.29c.98.54 2.13.3 2.59-.77.4-.93.19-2.04-.49-2.78-.93-1.03-2.4-1.64-2.99-2.95-.2-.44-.85-.06-.65.38.45 1 1.4 1.63 2.23 2.3.71.57 1.39 1.17 1.35 2.15-.03.72-.51 1.39-1.3 1.17-.55-.15-1.04-.61-1.47-.96-.48-.4-.95-.82-1.36-1.29-.77-.88-1.47-2.09-.81-3.23.24-.42-.41-.8-.65-.38Z"/><path d="M34.98 85.21c-.13-.82-.75-1.46-1.52-1.62 0-.02.01-.04.01-.06a.745.745 0 0 0-.75-.73c-.16 0-.29.07-.41.16-.04-.11-.08-.22-.14-.31-.09-.75-.55-1.32-1.09-1.31-.35.01-.66.28-.84.67-.27.15-.44.4-.41.67 0 .09.05.16.09.24-.33.08-.57.38-.56.74.01.34.24.61.55.69.07.23.24.41.47.48.03.04.06.08.09.11-.19.07-.33.19-.32.32 0 .21.33.36.73.35.09 0 .18-.02.26-.04v.03c.04 1.1.94 1.97 2.01 1.93.03 0 .07-.01.1-.01.82.39 1.74.16 2.1-.53.3-.57.13-1.28-.35-1.78Z" style="fill:#fad643"/><path d="M29.48 81.78c-.67 1.17-.33 2.46.41 3.5.41.58.91 1.1 1.45 1.58s1.08.95 1.69 1.29c.98.54 2.13.3 2.59-.77.4-.93.19-2.04-.49-2.78-.93-1.03-2.4-1.64-2.99-2.95-.2-.44-.85-.06-.65.38.45 1 1.4 1.63 2.23 2.3.71.57 1.39 1.17 1.35 2.15-.03.72-.51 1.39-1.3 1.17-.55-.15-1.04-.61-1.47-.96-.48-.4-.95-.82-1.36-1.29-.77-.88-1.47-2.09-.81-3.23.24-.42-.41-.8-.65-.38Z"/><path d="M5.91 57.9c-.13-.82-.75-1.46-1.52-1.62 0-.02.01-.04.01-.06a.745.745 0 0 0-.75-.73c-.16 0-.29.07-.41.16-.04-.11-.08-.22-.14-.31-.09-.75-.55-1.32-1.09-1.31-.35.01-.66.28-.84.67-.27.15-.44.4-.41.67 0 .09.05.16.09.24-.33.08-.57.38-.56.74.01.34.24.61.55.69.07.23.24.41.47.48.03.04.06.08.09.11-.19.07-.33.19-.32.32 0 .21.33.36.73.35.09 0 .18-.02.26-.04v.03c.04 1.1.94 1.97 2.01 1.93.03 0 .07-.01.1-.01.82.39 1.74.16 2.1-.53.3-.57.13-1.28-.35-1.78Z" style="fill:#fad643"/><path d="M.41 54.47c-.67 1.17-.33 2.46.41 3.5.41.58.91 1.1 1.45 1.58s1.08.95 1.69 1.29c.98.54 2.13.3 2.59-.77.4-.93.19-2.04-.49-2.78-.93-1.03-2.4-1.64-2.99-2.95-.2-.44-.85-.06-.65.38.45 1 1.4 1.63 2.23 2.3.71.57 1.39 1.17 1.35 2.15-.03.72-.51 1.39-1.3 1.17-.55-.15-1.04-.61-1.47-.96-.48-.4-.95-.82-1.36-1.29C1.1 57.21.4 56 1.06 54.86c.24-.42-.41-.8-.65-.38Z"/><path d="M53.42 19.42c-.13-.82-.75-1.46-1.52-1.62 0-.02.01-.04.01-.06a.745.745 0 0 0-.75-.73c-.16 0-.29.07-.41.16-.04-.11-.08-.22-.14-.31-.09-.75-.55-1.32-1.09-1.31-.35.01-.66.28-.84.67-.27.15-.44.4-.41.67 0 .09.05.16.09.24-.33.08-.57.38-.56.74.01.34.24.61.55.69.07.23.24.41.47.48.03.04.06.08.09.11-.19.07-.33.19-.32.32 0 .21.33.36.73.35.09 0 .18-.02.26-.04v.03c.04 1.1.94 1.97 2.01 1.93.03 0 .07-.01.1-.01.82.39 1.74.16 2.1-.53.3-.57.13-1.28-.35-1.78Z" style="fill:#fad643"/><path d="M47.92 16c-.67 1.17-.33 2.46.41 3.5.41.58.91 1.1 1.45 1.58s1.08.95 1.69 1.29c.98.54 2.13.3 2.59-.77.4-.93.19-2.04-.49-2.78-.93-1.03-2.4-1.64-2.99-2.95-.2-.44-.85-.06-.65.38.45 1 1.4 1.63 2.23 2.3.71.57 1.39 1.17 1.35 2.15-.03.72-.51 1.39-1.3 1.17-.55-.15-1.04-.61-1.47-.96-.48-.4-.95-.82-1.36-1.29-.77-.88-1.47-2.09-.81-3.23.24-.42-.41-.8-.65-.38Z"/><path d="M68.8 32.92c-.13-.82-.75-1.46-1.52-1.62 0-.02.01-.04.01-.06a.745.745 0 0 0-.75-.73c-.16 0-.29.07-.41.16-.04-.11-.08-.22-.14-.31-.09-.75-.55-1.32-1.09-1.31-.35.01-.66.28-.84.67-.27.15-.44.4-.41.67 0 .09.05.16.09.24-.33.08-.57.38-.56.74.01.34.24.61.55.69.07.23.24.41.47.48.03.04.06.08.09.11-.19.07-.33.19-.32.32 0 .21.33.36.73.35.09 0 .18-.02.26-.04v.03c.04 1.1.94 1.97 2.01 1.93.03 0 .07-.01.1-.01.82.39 1.74.16 2.1-.53.3-.57.13-1.28-.35-1.78Z" style="fill:#fad643"/><path d="M63.3 29.5c-.67 1.17-.33 2.46.41 3.5.41.58.91 1.1 1.45 1.58s1.08.95 1.69 1.29c.98.54 2.13.3 2.59-.77.4-.93.19-2.04-.49-2.78-.93-1.03-2.4-1.64-2.99-2.95-.2-.44-.85-.06-.65.38.45 1 1.4 1.63 2.23 2.3.71.57 1.39 1.17 1.35 2.15-.03.72-.51 1.39-1.3 1.17-.55-.15-1.04-.61-1.47-.96-.48-.4-.95-.82-1.36-1.29-.77-.88-1.47-2.09-.81-3.23.24-.42-.41-.8-.65-.38Z"/><path d="M80.68 46.46c-.13-.82-.75-1.46-1.52-1.62 0-.02.01-.04.01-.06a.745.745 0 0 0-.75-.73c-.16 0-.29.07-.41.16-.04-.11-.08-.22-.14-.31-.09-.75-.55-1.32-1.09-1.31-.35.01-.66.28-.84.67-.27.15-.44.4-.41.67 0 .09.05.16.09.24-.33.08-.57.38-.56.74.01.34.24.61.55.69.07.23.24.41.47.48.03.04.06.08.09.11-.19.07-.33.19-.32.32 0 .21.33.36.73.35.09 0 .18-.02.26-.04v.03c.04 1.1.94 1.97 2.01 1.93.03 0 .07-.01.1-.01.82.39 1.74.16 2.1-.53.3-.57.13-1.28-.35-1.78Z" style="fill:#fad643"/><path d="M75.17 43.03c-.67 1.17-.33 2.46.41 3.5.41.58.91 1.1 1.45 1.58s1.08.95 1.69 1.29c.98.54 2.13.3 2.59-.77.4-.93.19-2.04-.49-2.78-.93-1.03-2.4-1.64-2.99-2.95-.2-.44-.85-.06-.65.38.45 1 1.4 1.63 2.23 2.3.71.57 1.39 1.17 1.35 2.15-.03.72-.51 1.39-1.3 1.17-.55-.15-1.04-.61-1.47-.96-.48-.4-.95-.82-1.36-1.29-.77-.88-1.47-2.09-.81-3.23.24-.42-.41-.8-.65-.38Z"/></svg>